<svg width="27" height="27" viewBox="0 0 27 27" fill="none" xmlns="http://www.w3.org/2000/svg">
<g clip-path="url(#clip0_31_1616)">
<path d="M13.5702 -0.0280762C6.18401 -0.0280762 0.173828 5.98043 0.173828 13.3674C0.173828 20.7544 6.18401 26.7629 13.5702 26.7629C20.9563 26.7629 26.9665 20.7544 26.9665 13.3674C26.9665 5.98043 20.9563 -0.0280762 13.5702 -0.0280762ZM13.5702 25.8707C6.67608 25.8707 1.06775 20.2615 1.06775 13.3674C1.06775 6.47334 6.67608 0.864177 13.5702 0.864177C20.4642 0.864177 26.0726 6.47334 26.0726 13.3674C26.0726 20.2615 20.4642 25.8707 13.5702 25.8707Z" fill="#9D9D9D"/>
<path d="M16.4932 5.84827H14.2642C11.4254 5.81986 11.0628 7.5768 11.0628 9.47827V10.8609H9.80967C9.75303 10.8534 9.6954 10.859 9.64127 10.8773C9.58715 10.8956 9.53797 10.9261 9.49756 10.9665C9.45715 11.0069 9.42661 11.0561 9.40829 11.1103C9.38997 11.1644 9.38438 11.222 9.39194 11.2786V13.785C9.38438 13.8416 9.38997 13.8992 9.40829 13.9534C9.42661 14.0075 9.45715 14.0567 9.49756 14.0971C9.53797 14.1375 9.58715 14.168 9.64127 14.1864C9.6954 14.2047 9.75303 14.2103 9.80967 14.2027H11.0628V20.4685C11.0559 20.5253 11.062 20.5828 11.0807 20.6369C11.0994 20.6909 11.1302 20.7399 11.1707 20.7802C11.2112 20.8205 11.2605 20.851 11.3146 20.8694C11.3687 20.8878 11.4264 20.8935 11.4831 20.8862H14.0353C14.2818 20.9146 14.4815 20.715 14.4029 20.4685L14.4046 14.2027H16.4932C16.5499 14.2103 16.6075 14.2047 16.6616 14.1864C16.7157 14.168 16.7649 14.1375 16.8053 14.0971C16.8457 14.0567 16.8763 14.0075 16.8946 13.9534C16.9129 13.8992 16.9185 13.8416 16.9109 13.785V11.2786C16.9185 11.222 16.9129 11.1644 16.8946 11.1103C16.8763 11.0561 16.8457 11.0069 16.8053 10.9665C16.7649 10.9261 16.7157 10.8956 16.6616 10.8773C16.6075 10.859 16.5499 10.8534 16.4932 10.8609H14.4021L14.4046 9.60776C14.4856 9.07391 14.4856 9.1608 14.9811 9.19004H16.4757C16.5918 9.16414 16.7154 9.17834 16.8023 9.09396C16.8892 9.00958 16.9393 8.89429 16.9101 8.77232V6.26599C16.9178 6.20939 16.9123 6.15178 16.8941 6.09765C16.8759 6.04351 16.8455 5.99431 16.8051 5.95388C16.7648 5.91345 16.7156 5.88288 16.6615 5.86457C16.6074 5.84625 16.5498 5.84067 16.4932 5.84827ZM16.0462 8.30781L14.9986 8.26771C13.7012 8.26771 13.5926 8.97199 13.5926 9.69298L13.5892 11.277C13.5891 11.3356 13.6006 11.3937 13.6229 11.448C13.6453 11.5022 13.6781 11.5515 13.7196 11.593C13.761 11.6345 13.8102 11.6674 13.8644 11.6899C13.9186 11.7124 13.9767 11.7239 14.0353 11.7239H16.0755V13.338H14.037C13.9186 13.338 13.8051 13.385 13.7213 13.4686C13.6375 13.5523 13.5903 13.6657 13.59 13.7841L13.5892 20.0508H11.8983V13.785C11.8983 13.5385 11.7304 13.3388 11.4831 13.3388H10.2274V11.7248H11.4831C11.5417 11.7249 11.5997 11.7134 11.6539 11.691C11.7081 11.6687 11.7574 11.6359 11.7989 11.5944C11.8824 11.5101 11.8974 11.3964 11.8974 11.2778V9.47743C11.8974 7.60437 12.2759 6.71212 14.2634 6.71212H16.0454V8.30781H16.0462Z" fill="#9D9D9D"/>
</g>
<defs>
<clipPath id="clip0_31_1616">
<rect width="26.7342" height="26.7342" fill="white" transform="translate(0.202637)"/>
</clipPath>
</defs>
</svg>
