<svg width="27" height="27" viewBox="0 0 27 27" fill="none" xmlns="http://www.w3.org/2000/svg">
<g clip-path="url(#clip0_31_1635)">
<path d="M13.3675 -0.0280762C5.98137 -0.0280762 -0.0288086 5.98043 -0.0288086 13.3674C-0.0288086 20.7544 5.98137 26.7629 13.3675 26.7629C20.7537 26.7629 26.7638 20.7544 26.7638 13.3674C26.7638 5.98043 20.7537 -0.0280762 13.3675 -0.0280762ZM13.3675 25.8707C6.47344 25.8707 0.865115 20.2615 0.865115 13.3674C0.865115 6.47334 6.47344 0.864177 13.3675 0.864177C20.2616 0.864177 25.8699 6.47334 25.8699 13.3674C25.8699 20.2615 20.2616 25.8707 13.3675 25.8707Z" fill="#9D9D9D"/>
<path d="M16.3705 6.85449H10.3636C8.4254 6.85449 6.85449 8.42568 6.85449 10.3636V16.3705C6.85449 18.3087 8.42568 19.8796 10.3639 19.8796H16.3702C18.3084 19.8796 19.8796 18.3084 19.8796 16.3702V10.3636C19.8796 8.4254 18.3084 6.85449 16.3702 6.85449H16.3705Z" fill="white"/>
<path d="M16.3705 6.85449H10.3636C8.4254 6.85449 6.85449 8.42568 6.85449 10.3636V16.3705C6.85449 18.3087 8.42568 19.8796 10.3639 19.8796H16.3702C18.3084 19.8796 19.8796 18.3084 19.8796 16.3702V10.3636C19.8796 8.4254 18.3084 6.85449 16.3702 6.85449H16.3705Z" stroke="#9D9D9D" stroke-width="0.556962" stroke-miterlimit="10"/>
<path d="M13.3672 16.511C15.1036 16.511 16.5112 15.1034 16.5112 13.367C16.5112 11.6305 15.1036 10.2229 13.3672 10.2229C11.6308 10.2229 10.2231 11.6305 10.2231 13.367C10.2231 15.1034 11.6308 16.511 13.3672 16.511Z" stroke="#9D9D9D" stroke-width="0.556962" stroke-miterlimit="10"/>
<path d="M17.1844 10.223C17.5564 10.223 17.858 9.92142 17.858 9.54938C17.858 9.17733 17.5564 8.87573 17.1844 8.87573C16.8123 8.87573 16.5107 9.17733 16.5107 9.54938C16.5107 9.92142 16.8123 10.223 17.1844 10.223Z" fill="#9D9D9D"/>
</g>
<defs>
<clipPath id="clip0_31_1635">
<rect width="26.7342" height="26.7342" fill="white"/>
</clipPath>
</defs>
</svg>
