<svg width="28" height="27" viewBox="0 0 28 27" fill="none" xmlns="http://www.w3.org/2000/svg">
<g clip-path="url(#clip0_31_1620)">
<path d="M16.7719 9.98535C16.2055 9.98535 15.7861 10.1282 15.4578 10.3087C15.4052 10.1215 15.2322 9.98452 15.0284 10.0255H12.5354C12.289 9.98452 12.0893 10.1842 12.1653 10.4432V19.633C12.0893 19.867 12.289 20.0675 12.5354 20.0508H15.0284C15.2748 20.0675 15.4745 19.867 15.4745 19.6205L15.4737 14.0665C15.4728 14.064 15.4636 13.7983 15.6316 13.6154C15.7661 13.47 15.9975 13.3956 16.3175 13.3956C16.8505 13.3956 17.0877 13.6137 17.1763 14.1016V19.6205C17.0886 19.867 17.2882 20.0675 17.5347 20.0508H20.1622C20.4086 20.0675 20.6083 19.867 20.5197 19.6205V13.9161C20.6075 11.0155 18.5414 9.98535 16.7719 9.98535ZM19.7152 19.2153H17.9808V14.1016C17.9808 13.1149 17.3434 12.5034 16.3183 12.5034C15.7385 12.5034 15.2874 12.6738 14.9766 13.0097C14.5446 13.4775 14.5781 14.0707 14.6708 14.2027V19.2153H12.9815V10.8776H14.5822V11.1583C14.5816 11.2419 14.6045 11.324 14.6485 11.3952C14.6924 11.4664 14.7555 11.5237 14.8305 11.5606C14.9056 11.5975 14.9895 11.6125 15.0727 11.6039C15.1558 11.5952 15.2349 11.5633 15.3007 11.5117L15.4177 11.4215C15.756 11.155 16.1061 10.8784 16.7728 10.8784C17.4629 10.8784 19.716 11.0982 19.716 13.9169V19.2153H19.7152Z" fill="#9D9D9D"/>
<path d="M9.65828 5.81958C8.72091 5.81958 7.95898 6.5815 7.95898 7.51887C7.95898 8.45624 8.72091 9.21816 9.65828 9.21816C10.5956 9.21816 11.3576 8.45624 11.3576 7.51887C11.3576 6.5815 10.5956 5.81958 9.65828 5.81958ZM9.65828 8.32591C9.21382 8.32591 8.85124 7.96333 8.85124 7.51887C8.85124 7.07442 9.21382 6.71183 9.65828 6.71183C10.1027 6.71183 10.4653 7.07442 10.4653 7.51887C10.4653 7.96333 10.1027 8.32591 9.65828 8.32591Z" fill="#9D9D9D"/>
<path d="M10.8513 9.98438H8.37172C8.12527 9.98438 7.9256 10.184 7.98742 10.443V19.6329C7.9256 19.8668 8.12527 20.0673 8.37172 20.0506H10.8513C11.0978 20.0673 11.2974 19.8668 11.2974 19.6204V10.4305C11.2974 10.3122 11.2504 10.1987 11.1668 10.115C11.0831 10.0314 10.9696 9.98437 10.8513 9.98438ZM10.4937 19.2152H8.81785V10.8775H10.4937V19.2152Z" fill="#9D9D9D"/>
<path d="M13.8354 -0.0275879C6.44845 -0.0275879 0.439941 5.98092 0.439941 13.3679C0.439941 20.7549 6.44845 26.7634 13.8354 26.7634C21.2224 26.7634 27.2309 20.7549 27.2309 13.3679C27.2309 5.98092 21.2224 -0.0275879 13.8354 -0.0275879ZM13.8354 25.8711C6.94136 25.8711 1.33219 20.262 1.33219 13.3679C1.33219 6.47383 6.94136 0.864665 13.8354 0.864665C20.7295 0.864665 26.3387 6.47383 26.3387 13.3679C26.3387 20.262 20.7295 25.8711 13.8354 25.8711Z" fill="#9D9D9D"/>
</g>
<defs>
<clipPath id="clip0_31_1620">
<rect width="26.7342" height="26.7342" fill="white" transform="translate(0.468262)"/>
</clipPath>
</defs>
</svg>
