<svg width="28" height="27" viewBox="0 0 28 27" fill="none" xmlns="http://www.w3.org/2000/svg">
<g clip-path="url(#clip0_31_1631)">
<path d="M14.1019 -0.027832C6.71574 -0.027832 0.705566 5.98067 0.705566 13.3677C0.705566 20.7546 6.71574 26.7632 14.1019 26.7632C21.488 26.7632 27.4982 20.7546 27.4982 13.3677C27.4982 5.98067 21.488 -0.027832 14.1019 -0.027832ZM14.1019 25.8709C7.20782 25.8709 1.59949 20.2617 1.59949 13.3677C1.59949 6.47359 7.20782 0.864421 14.1019 0.864421C20.996 0.864421 26.6043 6.47359 26.6043 13.3677C26.6043 20.2617 20.996 25.8709 14.1019 25.8709Z" fill="#9D9D9D"/>
<path d="M21.4481 9.2282C21.5408 9.05667 21.6172 8.87682 21.6762 8.69101C21.7036 8.60483 21.7041 8.51238 21.6778 8.42587C21.6515 8.33936 21.5996 8.26287 21.5289 8.20648C21.4582 8.1501 21.3721 8.11648 21.2819 8.11006C21.1917 8.10364 21.1017 8.12473 21.0237 8.17053C20.5956 8.42485 20.1322 8.61432 19.6486 8.73279C19.0615 8.20293 18.299 7.90919 17.5082 7.9082C17.0785 7.90853 16.6534 7.99562 16.2582 8.16423C15.863 8.33285 15.5059 8.57953 15.2084 8.88948C14.9108 9.19943 14.6789 9.56627 14.5266 9.96801C14.3743 10.3697 14.3046 10.7981 14.3218 11.2274C12.4429 10.9909 10.7272 10.0401 9.53055 8.57238C9.4847 8.51678 9.42611 8.47306 9.35975 8.44494C9.29339 8.41683 9.22122 8.40514 9.14938 8.41088C9.07754 8.41662 9.00815 8.43962 8.9471 8.47792C8.88604 8.51621 8.83514 8.56868 8.7987 8.63086C8.52469 9.10116 8.37576 9.63381 8.36611 10.178C8.35646 10.7222 8.48641 11.2598 8.74356 11.7395C8.68049 11.7502 8.6199 11.7723 8.56478 11.8047C8.49723 11.8478 8.44161 11.9072 8.40307 11.9774C8.36452 12.0476 8.34428 12.1264 8.34422 12.2066C8.34422 13.1548 8.76612 14.0253 9.44617 14.6168L9.41693 14.6461C9.36559 14.7041 9.33027 14.7746 9.31444 14.8505C9.29862 14.9264 9.30285 15.0051 9.3267 15.0788C9.46851 15.5212 9.70528 15.9272 10.0205 16.2685C10.3356 16.6098 10.7216 16.8781 11.1513 17.0546C10.2687 17.4852 9.28105 17.6531 8.30579 17.5384C8.20554 17.5281 8.10473 17.5515 8.01916 17.6047C7.93359 17.6579 7.86809 17.738 7.83293 17.8324C7.79916 17.9276 7.79852 18.0313 7.83113 18.1269C7.86373 18.2224 7.92766 18.3041 8.01255 18.3588C9.3384 19.2097 10.8808 19.6618 12.4563 19.6612C17.6193 19.6612 20.7054 15.4673 20.7054 11.4129L20.7046 11.2759C21.205 10.8852 21.6396 10.417 21.992 9.88904C22.0454 9.80922 22.0716 9.71434 22.0669 9.61844C22.0621 9.52254 22.0266 9.43072 21.9656 9.35659C21.9045 9.28245 21.8213 9.22993 21.7281 9.20681C21.6349 9.18369 21.5367 9.19119 21.4481 9.2282ZM19.9903 10.6944C19.9297 10.738 19.8809 10.7961 19.8485 10.8634C19.8161 10.9306 19.8011 11.005 19.8048 11.0795C19.8098 11.1898 19.8123 11.3018 19.8123 11.4121C19.8123 15.0278 17.0612 18.7681 12.4571 18.7681C11.636 18.7685 10.8206 18.6307 10.0452 18.3604C10.9739 18.1825 11.8463 17.7842 12.5891 17.1992C12.6614 17.1421 12.7144 17.0642 12.7407 16.9759C12.767 16.8877 12.7654 16.7935 12.7362 16.7062C12.7069 16.6189 12.6514 16.5427 12.5772 16.4881C12.503 16.4336 12.4138 16.4033 12.3218 16.4013C11.9615 16.3944 11.608 16.303 11.2896 16.1344C10.9712 15.9657 10.6969 15.7246 10.4888 15.4305C10.7002 15.4163 10.9074 15.3812 11.1087 15.3269C11.2061 15.3009 11.2919 15.2425 11.3519 15.1615C11.4119 15.0804 11.4427 14.9814 11.4392 14.8805C11.4357 14.7797 11.3982 14.6831 11.3327 14.6063C11.2672 14.5296 11.1776 14.4774 11.0786 14.4581C10.6718 14.3753 10.2951 14.1835 9.98886 13.9032C9.68262 13.6228 9.45836 13.2645 9.34007 12.8666C9.56229 12.9225 9.79037 12.9551 10.0184 12.9626C10.2148 12.9618 10.3969 12.8415 10.4579 12.6527C10.5189 12.4639 10.447 12.2558 10.2808 12.1456C9.88768 11.8837 9.58501 11.5068 9.4141 11.0664C9.24319 10.6261 9.21237 10.1437 9.32586 9.68519C10.7771 11.1742 12.7366 12.0609 14.8131 12.1681C14.9601 12.169 15.0887 12.1163 15.1781 12.0086C15.2675 11.9008 15.3018 11.7579 15.27 11.6209C15.1558 11.1288 15.2069 10.6128 15.4155 10.1527C15.624 9.69261 15.9784 9.31407 16.4238 9.07569C16.8692 8.8373 17.3807 8.75235 17.8792 8.83399C18.3778 8.91562 18.8355 9.1593 19.1816 9.52729C19.2335 9.58263 19.2986 9.62386 19.3708 9.6471C19.443 9.67034 19.5199 9.67482 19.5943 9.66013C19.7321 9.63256 19.8683 9.60081 20.0028 9.56405C19.9422 9.60944 19.8792 9.65156 19.814 9.6902C19.7274 9.74327 19.6614 9.82427 19.627 9.91985C19.5925 10.0154 19.5917 10.1199 19.6246 10.216C19.6575 10.3121 19.7221 10.3942 19.8079 10.4487C19.8937 10.5031 19.9954 10.5267 20.0964 10.5156L20.2484 10.4964C20.1647 10.5654 20.0786 10.6314 19.9903 10.6944Z" fill="#9D9D9D"/>
</g>
<defs>
<clipPath id="clip0_31_1631">
<rect width="26.7342" height="26.7342" fill="white" transform="translate(0.734375)"/>
</clipPath>
</defs>
</svg>
