<svg width="24" height="24" viewBox="0 0 24 24" fill="none" xmlns="http://www.w3.org/2000/svg">
<path d="M22.65 14.3902L12 22.1302L1.35002 14.3902C1.20725 14.2852 1.10134 14.1377 1.04746 13.9689C0.993572 13.8001 0.99447 13.6185 1.05002 13.4502L2.27002 9.67021L4.71002 2.16021C4.73369 2.09901 4.77136 2.04421 4.82002 2.00021C4.89926 1.92783 5.0027 1.8877 5.11002 1.8877C5.21734 1.8877 5.32078 1.92783 5.40002 2.00021C5.45141 2.04987 5.48927 2.11182 5.51002 2.18021L7.95002 9.67021H16.05L18.49 2.16021C18.5137 2.09901 18.5514 2.04421 18.6 2.00021C18.6793 1.92783 18.7827 1.8877 18.89 1.8877C18.9973 1.8877 19.1008 1.92783 19.18 2.00021C19.2314 2.04987 19.2693 2.11182 19.29 2.18021L21.73 9.6902L23 13.4502C23.0505 13.6237 23.0438 13.8088 22.9807 13.9782C22.9177 14.1475 22.8017 14.292 22.65 14.3902V14.3902Z" stroke="white" stroke-linecap="round" stroke-linejoin="round"/>
</svg>
