<svg width="165" height="153" viewBox="0 0 165 153" fill="none" xmlns="http://www.w3.org/2000/svg">
<g clip-path="url(#clip0_8_2834)">
<path d="M59.5302 50.7726L54.4109 65.937L41.064 67.2242C41.064 67.2242 51.2653 58.6431 52.6698 48.8603C54.0742 39.0775 59.5302 50.7726 59.5302 50.7726Z" fill="#D4A79A"/>
<path d="M79.0808 22.2741C79.0808 22.2741 80.7364 26.4837 75.2041 36.4321C69.6719 46.3804 62.977 54.3272 59.9411 52.7888C51.5498 48.5364 50.1844 41.3877 48.6069 35.1392C46.6723 27.4771 58.6669 13.4474 58.6669 13.4474L66.8183 11.6002L79.0808 22.2741Z" fill="#EAC2AB"/>
<path d="M90.0299 22.2368C90.96 19.7032 90.8111 16.859 88.9602 14.1208C88.4245 13.3283 87.6451 12.7033 86.7373 12.5433C86.0546 12.4224 85.3124 12.5638 84.6836 12.268C82.7955 11.3863 83.3722 8.40065 81.6999 7.29569C80.4517 6.47162 78.7924 7.34592 77.3023 7.28453C76.1769 7.23803 75.1668 6.6502 74.1679 6.1312C71.3553 4.67094 68.9872 2.46474 66.0277 1.24073C63.5294 0.208318 60.7558 -0.253013 58.0697 0.349693C55.2664 0.978442 52.8463 2.89631 51.1367 5.41503C50.1155 6.92179 49.4216 8.72247 49.3937 10.5492C49.416 9.048 46.4806 9.84789 45.917 10.2869C43.7127 12.002 42.1333 16.6172 42.2822 19.3684C42.3994 21.5467 43.0188 23.6208 43.0709 25.8122C43.1844 30.6059 42.6691 38.5862 49.7676 38.7164C49.5797 36.2758 49.4105 33.7887 49.9257 31.3667C50.8465 27.0529 52.7644 21.3514 56.749 18.8996C65.1627 13.7264 67.9939 27.1831 74.3576 29.7297C80.2824 32.1052 87.9222 27.9737 90.0299 22.2368Z" fill="#4B369D"/>
<path d="M52.1059 23.6211C52.1059 23.6211 49.8644 19.0115 48.6478 24.7539C47.4331 30.4982 50.0634 32.4868 50.0634 32.4868L52.1059 23.6211Z" fill="#EAC2AB"/>
<path d="M66.3069 104.841C65.6986 96.9721 64.6104 88.6496 62.7893 80.7735C61.3811 74.6851 60.0585 66.3476 54.0686 62.8783C42.8498 56.3788 35.6303 72.4249 33.6492 80.8702C31.3909 90.4912 31.6774 100.627 31.5732 110.447C31.4802 119.254 30.2413 128.958 31.4393 137.614C31.6513 139.141 32.2094 140.707 33.4055 141.68C36.4469 144.154 39.5832 140.875 42.1429 139.416C44.537 138.051 47.0724 138.276 49.6153 137.359C51.8494 136.554 52.9488 134.883 54.8183 133.585C59.7218 130.177 65.0011 135.659 70.3157 134.632C81.8675 132.4 73.0483 135.549 68.3996 112.341C67.9253 109.977 66.5227 107.642 66.3069 104.841Z" fill="#F44E4E"/>
<path d="M96.3383 87.4965C100.726 84.6671 102.427 78.3164 106.486 74.9122C108.139 73.5264 110.1 72.7042 112.044 71.9433C114.819 70.8551 117.623 69.8525 120.447 68.9373C120.27 70.3808 119.157 71.4504 118.002 72.0884C116.847 72.7265 115.569 73.0892 114.494 73.8891C114.02 74.2407 113.584 74.6909 113.339 75.2694C112.786 76.5697 113.322 78.1322 113.089 79.5516C112.652 82.2135 109.921 83.2999 107.829 84.602C103.507 87.29 100.715 92.586 96.2118 94.8555C96.2118 94.8555 62.4156 122.917 58.2488 122.141C54.0819 121.365 48.332 83.0915 48.332 83.0915C48.332 83.0915 44.3661 63.3659 54.7851 72.8158C65.2041 82.2656 58.7901 113.657 63.9391 110.416C69.0844 107.174 96.3383 87.4965 96.3383 87.4965Z" fill="#EAC2AB"/>
<path d="M62.2872 88.4415C62.2872 88.4415 61.0911 64.1287 51.0069 66.1358C40.9228 68.143 47.3981 95.434 47.3981 95.434L63.8535 91.9108L62.2872 88.4415Z" fill="#D7384E"/>
<path d="M85.028 147.925H16.9669C13.9385 147.925 11.4607 145.447 11.4607 142.419V134.656C11.4607 131.628 13.9385 129.15 16.9669 129.15H85.028C88.0564 129.15 90.5342 131.628 90.5342 134.656V142.419C90.5323 145.447 88.0546 147.925 85.028 147.925Z" fill="#E3E5FC"/>
<path d="M49.3644 152.614H3.85078C1.82501 152.614 0.169434 150.957 0.169434 148.933V143.743C0.169434 141.717 1.82687 140.062 3.85078 140.062H49.3644C51.3901 140.062 53.0457 141.719 53.0457 143.743V148.933C53.0457 150.959 51.3883 152.614 49.3644 152.614Z" fill="#F44E4E"/>
<path d="M47.0139 146.647L46.8464 146.852C46.7813 146.932 46.6623 146.943 46.5823 146.878L42.7856 143.786C42.7056 143.721 42.6945 143.602 42.7596 143.522L42.927 143.317C42.9921 143.237 43.1111 143.226 43.1911 143.291L46.9878 146.383C47.0659 146.448 47.079 146.567 47.0139 146.647Z" fill="white"/>
<path d="M47.0131 146.485L46.8457 146.281C46.7806 146.201 46.6615 146.19 46.5816 146.255L42.7849 149.346C42.7049 149.411 42.6937 149.531 42.7588 149.61L42.9263 149.815C42.9914 149.895 43.1104 149.906 43.1904 149.841L46.9871 146.749C47.0652 146.683 47.0782 146.563 47.0131 146.485Z" fill="white"/>
<path d="M41.7116 146.647L41.5442 146.852C41.4791 146.932 41.36 146.943 41.28 146.878L37.4834 143.786C37.4034 143.721 37.3922 143.602 37.4573 143.522L37.6247 143.317C37.6898 143.237 37.8089 143.226 37.8889 143.291L41.6856 146.383C41.7656 146.448 41.7767 146.567 41.7116 146.647Z" fill="white"/>
<path d="M41.7116 146.485L41.5442 146.281C41.4791 146.201 41.36 146.19 41.28 146.255L37.4834 149.346C37.4034 149.411 37.3922 149.531 37.4573 149.61L37.6247 149.815C37.6898 149.895 37.8089 149.906 37.8889 149.841L41.6856 146.749C41.7656 146.683 41.7767 146.563 41.7116 146.485Z" fill="white"/>
<path d="M35.9264 146.647L35.759 146.852C35.6939 146.932 35.5749 146.943 35.4949 146.878L31.6982 143.786C31.6182 143.721 31.6071 143.602 31.6722 143.522L31.8396 143.317C31.9047 143.237 32.0237 143.226 32.1037 143.291L35.9004 146.383C35.9804 146.448 35.9916 146.567 35.9264 146.647Z" fill="white"/>
<path d="M35.926 146.485L35.7585 146.281C35.6934 146.201 35.5744 146.19 35.4944 146.255L31.6977 149.346C31.6177 149.411 31.6066 149.531 31.6717 149.61L31.8391 149.815C31.9042 149.895 32.0233 149.906 32.1032 149.841L35.8999 146.749C35.9799 146.683 35.9911 146.563 35.926 146.485Z" fill="white"/>
<path opacity="0.26" d="M157.027 94.4144L88.129 118.301C83.7576 118.301 80.2139 114.758 80.2139 110.386V76.3667C80.2139 71.9953 83.7576 68.4516 88.129 68.4516L157.027 44.5647C161.399 44.5647 164.942 48.1084 164.942 52.4799V86.4993C164.942 90.8707 161.399 94.4144 157.027 94.4144Z" fill="#A7ADFF"/>
<path opacity="0.13" d="M152.775 92.4074L83.8766 116.294C79.5051 116.294 75.9614 112.751 75.9614 108.379V74.3616C75.9614 69.9901 79.5051 66.4464 83.8766 66.4464L152.775 42.5596C157.146 42.5596 160.69 46.1033 160.69 50.4747V84.4923C160.69 88.8637 157.146 92.4074 152.775 92.4074Z" fill="#A7ADFF"/>
<path opacity="0.39" d="M111.316 82.2377L90.0579 89.6079C88.7093 89.6079 87.6155 88.5141 87.6155 87.1654V76.6683C87.6155 75.3196 88.7093 74.2258 90.0579 74.2258L111.316 66.8557C112.665 66.8557 113.759 67.9495 113.759 69.2982V79.7953C113.759 81.1439 112.665 82.2377 111.316 82.2377Z" fill="white"/>
<path d="M159.508 33.1821L138.25 40.5522C136.901 40.5522 135.808 39.4584 135.808 38.1097V27.6126C135.808 26.264 136.901 25.1702 138.25 25.1702L159.508 17.8C160.857 17.8 161.951 18.8938 161.951 20.2425V30.7396C161.951 32.0883 160.857 33.1821 159.508 33.1821Z" fill="#A7ADFF"/>
<path d="M151.45 30.3976L131.323 37.3752C130.045 37.3752 129.01 36.3391 129.01 35.063V25.1258C129.01 23.8478 130.047 22.8136 131.323 22.8136L151.45 15.8359C152.728 15.8359 153.762 16.8721 153.762 18.1482V28.0854C153.762 29.3633 152.726 30.3976 151.45 30.3976Z" fill="#E3E5FC"/>
<path d="M158.378 111.402L138.25 118.379C136.973 118.379 135.938 117.343 135.938 116.067V106.13C135.938 104.852 136.974 103.818 138.25 103.818L158.378 96.8401C159.656 96.8401 160.69 97.8762 160.69 99.1523V109.09C160.69 110.367 159.656 111.402 158.378 111.402Z" fill="#E3E5FC"/>
<path d="M124.978 114.787L103.72 122.158C102.371 122.158 101.277 121.064 101.277 119.715V109.22C101.277 107.871 102.371 106.777 103.72 106.777L124.978 99.4072C126.327 99.4072 127.42 100.501 127.42 101.85V112.347C127.42 113.694 126.327 114.787 124.978 114.787Z" fill="#A7ADFF"/>
<path opacity="0.51" d="M111.316 101.42L90.0579 108.79C88.7093 108.79 87.6155 107.696 87.6155 106.348V95.8507C87.6155 94.502 88.7093 93.4082 90.0579 93.4082L111.316 86.0381C112.665 86.0381 113.759 87.1319 113.759 88.4805V98.9777C113.759 100.326 112.665 101.42 111.316 101.42Z" fill="white"/>
<path opacity="0.51" d="M121.527 94.9075C121.008 94.9075 120.582 94.4816 120.582 93.9626V78.1173C120.582 77.5983 121.008 77.1724 121.527 77.1724C122.046 77.1724 122.472 77.5983 122.472 78.1173V93.9626C122.472 94.4816 122.048 94.9075 121.527 94.9075Z" fill="white"/>
<path opacity="0.51" d="M126.611 63.9164C126.436 63.4271 126.695 62.8839 127.184 62.7091L152.327 53.7373C152.816 53.5625 153.359 53.821 153.534 54.3103C153.709 54.7995 153.45 55.3427 152.961 55.5175L127.818 64.4893C127.329 64.6642 126.786 64.4056 126.611 63.9164Z" fill="white"/>
<path opacity="0.51" d="M126.611 67.3431C126.436 66.8539 126.695 66.3107 127.184 66.1358L152.326 57.1641C152.816 56.9892 153.359 57.2478 153.534 57.737C153.708 58.2263 153.45 58.7694 152.961 58.9443L127.818 67.9161C127.329 68.089 126.786 67.8323 126.611 67.3431Z" fill="white"/>
<path opacity="0.51" d="M126.611 70.7679C126.436 70.2787 126.695 69.7355 127.184 69.5606L152.326 60.5889C152.816 60.414 153.359 60.6726 153.534 61.1618C153.708 61.6511 153.45 62.1942 152.961 62.3691L127.818 71.3409C127.329 71.5157 126.786 71.2571 126.611 70.7679Z" fill="white"/>
<path opacity="0.51" d="M126.611 74.1942C126.436 73.7049 126.695 73.1618 127.184 72.9869L152.326 64.0152C152.816 63.8403 153.359 64.0989 153.534 64.5881C153.708 65.0773 153.45 65.6205 152.961 65.7954L127.818 74.7671C127.329 74.9401 126.786 74.6834 126.611 74.1942Z" fill="white"/>
<path opacity="0.51" d="M126.611 77.619C126.436 77.1298 126.695 76.5866 127.184 76.4117L152.326 67.44C152.816 67.2651 153.359 67.5237 153.534 68.0129C153.708 68.5021 153.45 69.0453 152.961 69.2202L127.818 78.1919C127.329 78.3668 126.786 78.1082 126.611 77.619Z" fill="white"/>
<path opacity="0.51" d="M126.611 81.0433C126.436 80.5541 126.695 80.0109 127.184 79.836L152.326 70.8643C152.816 70.6894 153.359 70.948 153.534 71.4372C153.708 71.9264 153.45 72.4696 152.961 72.6445L127.818 81.6162C127.329 81.7911 126.786 81.5325 126.611 81.0433Z" fill="white"/>
<path opacity="0.51" d="M126.611 84.4701C126.436 83.9808 126.695 83.4376 127.184 83.2628L152.326 74.291C152.816 74.1162 153.359 74.3747 153.534 74.864C153.708 75.3532 153.45 75.8964 152.961 76.0712L127.818 85.043C127.329 85.216 126.786 84.9593 126.611 84.4701Z" fill="white"/>
<path opacity="0.51" d="M126.611 87.8944C126.436 87.4051 126.695 86.862 127.184 86.6871L152.326 77.7153C152.816 77.5405 153.359 77.7991 153.534 78.2883C153.708 78.7775 153.45 79.3207 152.961 79.4956L127.818 88.4673C127.329 88.6422 126.786 88.3836 126.611 87.8944Z" fill="white"/>
<path opacity="0.51" d="M126.611 91.3211C126.436 90.8319 126.695 90.2887 127.184 90.1139L152.326 81.1421C152.816 80.9672 153.359 81.2258 153.534 81.715C153.708 82.2043 153.45 82.7475 152.961 82.9223L127.818 91.8941C127.329 92.0671 126.786 91.8104 126.611 91.3211Z" fill="white"/>
<path opacity="0.51" d="M126.611 94.7459C126.436 94.2567 126.695 93.7135 127.184 93.5387L152.326 84.5669C152.816 84.3921 153.359 84.6506 153.534 85.1399C153.708 85.6291 153.45 86.1723 152.961 86.3471L127.818 95.3189C127.329 95.4937 126.786 95.2352 126.611 94.7459Z" fill="white"/>
<path d="M115.199 36.605C115.433 36.4599 115.679 36.3297 115.928 36.2144C119.249 34.6909 123.189 36.153 124.714 39.4734C126.237 42.7939 124.775 46.7338 121.455 48.2573L120.793 46.8138C123.317 45.6549 124.427 42.66 123.27 40.1357C122.111 37.6114 119.117 36.5008 116.592 37.6579C116.403 37.7453 116.215 37.8458 116.036 37.9555L115.199 36.605Z" fill="#E3E5FC"/>
<path d="M119.165 48.4339L122.097 48.7092L120.869 46.0305L119.165 48.4339Z" fill="#E3E5FC"/>
<path d="M118.603 49.509C118.369 49.6541 118.123 49.7843 117.874 49.8996C114.553 51.4231 110.612 49.961 109.088 46.6406C107.565 43.3201 109.027 39.3802 112.347 37.8567L113.009 39.3002C110.485 40.4591 109.375 43.454 110.532 45.9783C111.691 48.5026 114.685 49.6132 117.21 48.4561C117.4 48.3687 117.587 48.2682 117.766 48.1585L118.603 49.509Z" fill="#E3E5FC"/>
<path d="M114.639 37.6801L111.706 37.4048L112.933 40.0816L114.639 37.6801Z" fill="#E3E5FC"/>
<path opacity="0.36" d="M121.527 73.2102C124.207 73.2102 126.38 71.0373 126.38 68.3569C126.38 65.6765 124.207 63.5037 121.527 63.5037C118.847 63.5037 116.674 65.6765 116.674 68.3569C116.674 71.0373 118.847 73.2102 121.527 73.2102Z" fill="#F44E4E"/>
<path d="M121.527 70.7846C122.868 70.7846 123.955 69.6977 123.955 68.357C123.955 67.0163 122.868 65.9294 121.527 65.9294C120.186 65.9294 119.1 67.0163 119.1 68.357C119.1 69.6977 120.186 70.7846 121.527 70.7846Z" fill="#F44E4E"/>
<path opacity="0.36" d="M121.527 71.789C123.423 71.789 124.959 70.2524 124.959 68.3569C124.959 66.4614 123.423 64.9248 121.527 64.9248C119.632 64.9248 118.095 66.4614 118.095 68.3569C118.095 70.2524 119.632 71.789 121.527 71.789Z" fill="#F44E4E"/>
</g>
<defs>
<clipPath id="clip0_8_2834">
<rect width="165" height="152.723" fill="white"/>
</clipPath>
</defs>
</svg>
